<svg width="960" height="240" viewBox="0 0 960 240" fill="none" xmlns="http://www.w3.org/2000/svg">
  <defs>
    <linearGradient id="bg" x1="12" y1="8" x2="220" y2="220" gradientUnits="userSpaceOnUse">
      <stop stop-color="#0A5A5C"/>
      <stop offset="1" stop-color="#0C6E70"/>
    </linearGradient>
    <linearGradient id="shine" x1="32" y1="24" x2="200" y2="200" gradientUnits="userSpaceOnUse">
      <stop stop-color="#73D0D0" stop-opacity="0.55"/>
      <stop offset="1" stop-color="#73D0D0" stop-opacity="0"/>
    </linearGradient>
  </defs>
  <rect x="8" y="8" width="224" height="224" rx="54" fill="url(#bg)"/>
  <rect x="8" y="8" width="224" height="224" rx="54" fill="url(#shine)"/>
  <path d="M54 158C54 140.327 68.327 126 86 126H104V174H86C68.327 174 54 159.673 54 142V158Z" fill="white"/>
  <path d="M104 70H138C155.673 70 170 84.327 170 102V102C170 119.673 155.673 134 138 134H104V70Z" fill="white"/>
  <rect x="104" y="134" width="32" height="40" fill="white"/>
  <text x="274" y="112" fill="#0F172A" font-size="60" font-family="Avenir Next, Avenir, Segoe UI, Arial, sans-serif" font-weight="700">Bill Tracker Hub</text>
  <text x="278" y="162" fill="#475569" font-size="30" font-family="Avenir Next, Avenir, Segoe UI, Arial, sans-serif" font-weight="500">Liability Insights</text>
</svg>
